<?xml version="1.0" standalone="no"?>
<!DOCTYPE svg PUBLIC "-//W3C//DTD SVG 20010904//EN"
 "http://www.w3.org/TR/2001/REC-SVG-20010904/DTD/svg10.dtd">
<svg version="1.0" xmlns="http://www.w3.org/2000/svg"
 width="512.000000pt" height="512.000000pt" viewBox="0 0 512.000000 512.000000"
 preserveAspectRatio="xMidYMid meet">

<g transform="translate(0.000000,512.000000) scale(0.100000,-0.100000)"
fill="#000000" stroke="none">
<path d="M4209 5109 c-57 -13 -2238 -818 -2294 -846 -97 -49 -188 -170 -214
-284 -7 -28 -11 -488 -11 -1292 0 -687 -3 -1247 -7 -1245 -152 78 -204 92
-343 92 -183 0 -328 -46 -493 -157 -279 -187 -457 -494 -457 -787 0 -52 7
-124 15 -159 37 -154 149 -298 286 -365 484 -238 1166 215 1229 817 6 53 10
534 10 1137 l0 1045 1273 469 c699 258 1278 471 1285 473 9 4 12 -153 12 -765
l0 -770 -67 34 c-194 97 -452 83 -683 -37 -258 -134 -467 -395 -531 -664 -26
-110 -28 -254 -4 -345 51 -198 206 -354 404 -405 75 -19 220 -22 311 -5 179
32 372 142 518 294 124 129 193 242 248 406 l29 85 3 1459 c2 1320 1 1465 -14
1515 -62 214 -292 351 -505 300z m191 -249 c31 -17 79 -79 89 -117 6 -21 11
-136 11 -260 l0 -221 -27 -10 c-16 -5 -591 -217 -1279 -471 -689 -253 -1255
-461 -1258 -461 -3 0 -6 141 -6 313 0 306 1 313 23 349 12 20 34 46 49 58 29
22 2228 836 2275 842 31 4 97 -8 123 -22z m-159 -2534 c274 -64 340 -382 142
-689 -172 -269 -486 -420 -723 -348 -105 32 -179 106 -211 211 -58 193 34 451
227 630 133 124 318 207 464 209 25 0 70 -5 101 -13z m-2729 -1064 c190 -93
232 -333 103 -590 -101 -202 -298 -365 -505 -418 -97 -25 -239 -16 -307 19
-169 87 -224 284 -143 515 62 176 234 363 412 447 109 51 169 65 278 62 85 -2
103 -6 162 -35z" fill="#ffffff"/>
</g>
</svg>
